CD_DA
CD_TEXT { LANGUAGE_MAP { 0:EN }
    LANGUAGE 0 {
        TITLE "Signals (Remastered)"
        PERFORMER "Rush"
        DISC_ID "5F09FA08"
}}

//Track 1
TRACK AUDIO
    CD_TEXT { LANGUAGE 0 {
        TITLE "Subdivisions"
        PERFORMER "Rush"
    }}
    AUDIOFILE "Rush - Signals (Remastered).wav" 00:00:00 05:34:54

//Track 2
TRACK AUDIO
    CD_TEXT { LANGUAGE 0 {
        TITLE "The Analog Kid"
        PERFORMER "Rush"
    }}
    AUDIOFILE "Rush - Signals (Remastered).wav" 05:34:54 04:48:03
    START 00:00:01

//Track 3
TRACK AUDIO
    CD_TEXT { LANGUAGE 0 {
        TITLE "Chemistry"
        PERFORMER "Rush"
    }}
    AUDIOFILE "Rush - Signals (Remastered).wav" 10:22:57 04:58:05

//Track 4
TRACK AUDIO
    CD_TEXT { LANGUAGE 0 {
        TITLE "Digital Man"
        PERFORMER "Rush"
    }}
    AUDIOFILE "Rush - Signals (Remastered).wav" 15:20:62 06:21:62

//Track 5
TRACK AUDIO
    CD_TEXT { LANGUAGE 0 {
        TITLE "The Weapon"
        PERFORMER "Rush"
    }}
    AUDIOFILE "Rush - Signals (Remastered).wav" 21:42:49 06:24:47
    START 00:00:26

//Track 6
TRACK AUDIO
    CD_TEXT { LANGUAGE 0 {
        TITLE "New World Man"
        PERFORMER "Rush"
    }}
    AUDIOFILE "Rush - Signals (Remastered).wav" 28:07:21 03:43:19
    START 00:00:11

//Track 7
TRACK AUDIO
    CD_TEXT { LANGUAGE 0 {
        TITLE "Losing It"
        PERFORMER "Rush"
    }}
    AUDIOFILE "Rush - Signals (Remastered).wav" 31:50:40 04:53:29

//Track 8
TRACK AUDIO
    CD_TEXT { LANGUAGE 0 {
        TITLE "Countdown"
        PERFORMER "Rush"
    }}
    AUDIOFILE "Rush - Signals (Remastered).wav" 36:43:69
    START 00:00:11
